# xmcd
#
# Track frame offsets:
#	150
#	5546
#	18894
#	34271
#	46312
#	62254
#	84158
#	106675
#	120889
#	137387
#	152943
#	172840
#	191121
#	205614
#	225819
#
# Disc length: 3296 seconds
#
# Revision: 0
# Processed by: cddbd v1.5.1PL2 Copyright (c) Steve Scherf et al.
# Submitted via: SynApp - FreeCDDB Version: 2.1
#
DISCID=9d0cde0f
DTITLE=Texas Lightning - Texas Lightning - Live im Grünspan
DYEAR=2005
DGENRE=Country
TTITLE0=Texas Lightning - Intro
TTITLE1=Texas Lightning - Bad Case Of Loving You
TTITLE2=Texas Lightning - Man Of Constant Sorrow
TTITLE3=Texas Lightning - Intro Band
TTITLE4=Texas Lightning - Dancing Queen
TTITLE5=Texas Lightning - Kiss
TTITLE6=Texas Lightning - Over The Mountains (Ueber den Wolken)
TTITLE7=Texas Lightning - The Unknown Stuntman
TTITLE8=Texas Lightning - Gentle On My Mind
TTITLE9=Texas Lightning - Ticket To Ride
TTITLE10=Texas Lightning - Man In The Mirror
TTITLE11=Texas Lightning - Like A Virgin
TTITLE12=Texas Lightning - C'est La Vie
TTITLE13=Texas Lightning - Walk On The Wild Side
TTITLE14=Texas Lightning - Highway To Hell
EXTD=
EXTT0=
EXTT1=
EXTT2=
EXTT3=
EXTT4=
EXTT5=
EXTT6=
EXTT7=
EXTT8=
EXTT9=
EXTT10=
EXTT11=
EXTT12=
EXTT13=
EXTT14=
PLAYORDER=
